<svg xmlns="http://www.w3.org/2000/svg" viewBox="0 0 200 200" width="200" height="200">
  <defs>
    <linearGradient id="bg5" x1="0%" y1="0%" x2="100%" y2="100%">
      <stop offset="0%" style="stop-color:#f093fb"/>
      <stop offset="100%" style="stop-color:#f5576c"/>
    </linearGradient>
    <linearGradient id="hair5" x1="0%" y1="0%" x2="100%" y2="100%">
      <stop offset="0%" style="stop-color:#8B4513"/>
      <stop offset="100%" style="stop-color:#654321"/>
    </linearGradient>
  </defs>
  <!-- Background -->
  <circle cx="100" cy="100" r="100" fill="url(#bg5)"/>
  <!-- Neck -->
  <rect x="83" y="134" width="34" height="24" rx="7" fill="#fad7a0"/>
  <!-- Shoulders -->
  <ellipse cx="100" cy="175" rx="55" ry="28" fill="#c0392b"/>
  <!-- V-neck -->
  <path d="M78 158 L100 172 L122 158" fill="#c0392b" stroke="#fad7a0" stroke-width="0"/>
  <polygon points="82,158 100,170 118,158" fill="#fad7a0" opacity="0.15"/>
  <!-- Hair back -->
  <ellipse cx="100" cy="72" rx="53" ry="50" fill="url(#hair5)"/>
  <!-- Hair flowing sides -->
  <path d="M47 75 Q40 100 50 145 Q55 130 57 100 Q53 80 47 75Z" fill="url(#hair5)"/>
  <path d="M153 75 Q160 100 150 145 Q145 130 143 100 Q147 80 153 75Z" fill="url(#hair5)"/>
  <!-- Face -->
  <ellipse cx="100" cy="88" rx="41" ry="45" fill="#fad7a0">
    <animate attributeName="cy" values="88;87;88" dur="4.2s" repeatCount="indefinite"/>
  </ellipse>
  <!-- Hair front (wavy bangs) -->
  <path d="M59 73 Q70 38 100 32 Q130 38 141 73 Q138 52 125 44 Q110 50 100 46 Q90 50 75 44 Q62 52 59 73Z" fill="url(#hair5)"/>
  <path d="M65 65 Q72 52 82 55 Q75 60 70 68Z" fill="url(#hair5)"/>
  <path d="M135 65 Q128 52 118 55 Q125 60 130 68Z" fill="url(#hair5)"/>
  <!-- Eyes (bright, green) -->
  <g>
    <ellipse cx="82" cy="85" rx="7.5" ry="8" fill="white"/>
    <ellipse cx="118" cy="85" rx="7.5" ry="8" fill="white"/>
    <circle cx="83" cy="85" r="4.5" fill="#2ecc71">
      <animate attributeName="cx" values="83;84;83;82;83" dur="6s" repeatCount="indefinite"/>
    </circle>
    <circle cx="119" cy="85" r="4.5" fill="#2ecc71">
      <animate attributeName="cx" values="119;120;119;118;119" dur="6s" repeatCount="indefinite"/>
    </circle>
    <circle cx="82" cy="83" r="2" fill="#27ae60"/>
    <circle cx="118" cy="83" r="2" fill="#27ae60"/>
    <circle cx="84" cy="84" r="1.5" fill="white"/>
    <circle cx="120" cy="84" r="1.5" fill="white"/>
    <!-- Blink -->
    <rect x="73" y="82" width="18" height="8" rx="4" fill="#fad7a0" opacity="0">
      <animate attributeName="opacity" values="0;0;0;0;0;0;0;1;0" dur="3.8s" repeatCount="indefinite"/>
    </rect>
    <rect x="109" y="82" width="18" height="8" rx="4" fill="#fad7a0" opacity="0">
      <animate attributeName="opacity" values="0;0;0;0;0;0;0;1;0" dur="3.8s" repeatCount="indefinite"/>
    </rect>
  </g>
  <!-- Eyelashes -->
  <path d="M73 82 L71 79" stroke="#654321" stroke-width="1" fill="none"/>
  <path d="M127 82 L129 79" stroke="#654321" stroke-width="1" fill="none"/>
  <!-- Eyebrows -->
  <path d="M73 74 Q82 69 92 73" stroke="#654321" stroke-width="2" fill="none"/>
  <path d="M108 73 Q118 69 127 74" stroke="#654321" stroke-width="2" fill="none"/>
  <!-- Nose -->
  <path d="M99 88 Q96 98 93 102 Q99 104 105 102 Q102 98 99 88" fill="#e8c88a" opacity="0.5"/>
  <!-- Lips (defined, confident) -->
  <path d="M85 109 Q92 105 100 109 Q108 105 115 109" fill="#e74c3c" opacity="0.7"/>
  <path d="M85 109 Q100 120 115 109" fill="#c0392b" opacity="0.5">
    <animate attributeName="d" values="M85 109 Q100 120 115 109;M87 110 Q100 117 113 110;M85 109 Q100 120 115 109" dur="3.2s" repeatCount="indefinite"/>
  </path>
  <!-- Earrings (hoops) -->
  <circle cx="56" cy="93" r="5" stroke="#FFD700" stroke-width="1.5" fill="none"/>
  <circle cx="144" cy="93" r="5" stroke="#FFD700" stroke-width="1.5" fill="none"/>
</svg>
