<svg xmlns="http://www.w3.org/2000/svg" viewBox="0 0 200 200" width="200" height="200">
  <defs>
    <linearGradient id="bg3" x1="0%" y1="0%" x2="100%" y2="100%">
      <stop offset="0%" style="stop-color:#e96443"/>
      <stop offset="100%" style="stop-color:#904e95"/>
    </linearGradient>
    <linearGradient id="hair3" x1="0%" y1="0%" x2="0%" y2="100%">
      <stop offset="0%" style="stop-color:#1a1a1a"/>
      <stop offset="100%" style="stop-color:#0d0d0d"/>
    </linearGradient>
  </defs>
  <!-- Background -->
  <circle cx="100" cy="100" r="100" fill="url(#bg3)"/>
  <!-- Neck -->
  <rect x="83" y="133" width="34" height="25" rx="7" fill="#c68642"/>
  <!-- Shoulders -->
  <ellipse cx="100" cy="175" rx="55" ry="28" fill="#6c3483"/>
  <!-- Necklace -->
  <path d="M72 158 Q100 170 128 158" stroke="#FFD700" stroke-width="1.5" fill="none"/>
  <circle cx="100" cy="168" r="3" fill="#FFD700"/>
  <!-- Hair back (long, flowing) -->
  <ellipse cx="100" cy="70" rx="54" ry="52" fill="url(#hair3)"/>
  <!-- Hair sides flowing down -->
  <path d="M48 75 Q42 100 45 140 Q50 135 55 100 Q54 80 48 75Z" fill="url(#hair3)"/>
  <path d="M152 75 Q158 100 155 140 Q150 135 145 100 Q146 80 152 75Z" fill="url(#hair3)"/>
  <!-- Face -->
  <ellipse cx="100" cy="88" rx="40" ry="44" fill="#c68642">
    <animate attributeName="cy" values="88;87;88" dur="4.5s" repeatCount="indefinite"/>
  </ellipse>
  <!-- Hair front -->
  <path d="M60 72 Q68 38 100 30 Q132 38 140 72 Q135 52 118 44 Q100 48 82 44 Q65 52 60 72Z" fill="url(#hair3)"/>
  <!-- Bindi -->
  <circle cx="100" cy="68" r="2.5" fill="#e74c3c"/>
  <!-- Eyes -->
  <g>
    <ellipse cx="82" cy="84" rx="7" ry="7.5" fill="white"/>
    <ellipse cx="118" cy="84" rx="7" ry="7.5" fill="white"/>
    <circle cx="83" cy="84" r="4.5" fill="#2d1b00">
      <animate attributeName="cx" values="83;84;83;82;83" dur="5s" repeatCount="indefinite"/>
    </circle>
    <circle cx="119" cy="84" r="4.5" fill="#2d1b00">
      <animate attributeName="cx" values="119;120;119;118;119" dur="5s" repeatCount="indefinite"/>
    </circle>
    <circle cx="84" cy="83" r="1.5" fill="white"/>
    <circle cx="120" cy="83" r="1.5" fill="white"/>
    <!-- Blink -->
    <rect x="74" y="80" width="17" height="9" rx="4" fill="#c68642" opacity="0">
      <animate attributeName="opacity" values="0;0;0;0;0;0;0;0;1;0" dur="3.5s" repeatCount="indefinite"/>
    </rect>
    <rect x="110" y="80" width="17" height="9" rx="4" fill="#c68642" opacity="0">
      <animate attributeName="opacity" values="0;0;0;0;0;0;0;0;1;0" dur="3.5s" repeatCount="indefinite"/>
    </rect>
  </g>
  <!-- Eyeliner -->
  <path d="M74 82 Q82 78 91 82" stroke="#1a1a1a" stroke-width="1" fill="none"/>
  <path d="M109 82 Q118 78 126 82" stroke="#1a1a1a" stroke-width="1" fill="none"/>
  <!-- Eyebrows (arched) -->
  <path d="M73 73 Q82 67 92 72" stroke="#1a1a1a" stroke-width="2" fill="none"/>
  <path d="M108 72 Q118 67 127 73" stroke="#1a1a1a" stroke-width="2" fill="none"/>
  <!-- Nose -->
  <path d="M98 88 Q95 98 92 102 Q98 105 104 102 Q101 98 98 88" fill="#b47538" opacity="0.5"/>
  <!-- Lips -->
  <path d="M86 110 Q93 106 100 110 Q107 106 114 110" fill="#c0392b" opacity="0.8"/>
  <path d="M86 110 Q100 120 114 110" fill="#e74c3c" opacity="0.6">
    <animate attributeName="d" values="M86 110 Q100 120 114 110;M88 111 Q100 118 112 111;M86 110 Q100 120 114 110" dur="3.5s" repeatCount="indefinite"/>
  </path>
  <!-- Earrings -->
  <circle cx="57" cy="92" r="2" fill="#FFD700"/>
  <circle cx="57" cy="97" r="3" fill="#e74c3c"/>
  <circle cx="143" cy="92" r="2" fill="#FFD700"/>
  <circle cx="143" cy="97" r="3" fill="#e74c3c"/>
</svg>
